<?xml version="1.0" encoding="utf-8"?>
<!-- Generator: Adobe Illustrator 21.1.0, SVG Export Plug-In . SVG Version: 6.00 Build 0)  -->
<svg version="1.1" id="Icons" xmlns="http://www.w3.org/2000/svg" xmlns:xlink="http://www.w3.org/1999/xlink" x="0px" y="0px"
	 viewBox="0 0 48 48" style="enable-background:new 0 0 48 48;" xml:space="preserve">
<style type="text/css">
	.st0{fill:#FFFFFF;}
	.st1{fill:#F0F0F0;}
	.st2{fill:none;stroke:#45413C;stroke-linecap:round;stroke-linejoin:round;stroke-miterlimit:10;}
	.st3{fill:#FF6242;}
	.st4{fill:#FF866E;}
	.st5{fill:#FFE500;stroke:#45413C;stroke-linecap:round;stroke-linejoin:round;stroke-miterlimit:10;}
	.st6{opacity:0.15;fill:#45413C;}
	.st7{fill:#45413C;stroke:#45413C;stroke-linecap:round;stroke-linejoin:round;stroke-miterlimit:10;}
	.st8{fill:#FFAA54;}
	.st9{fill:#E0E0E0;}
	.st10{fill:#FFCEBF;stroke:#45413C;stroke-linecap:round;stroke-linejoin:round;stroke-miterlimit:10;}
	.st11{fill:#FFB59E;}
	.st12{fill:#724F3D;}
	.st13{fill:#A86C4D;}
	.st14{fill:#FFE500;}
	.st15{fill:#EBCB00;}
	.st16{fill:#FFA694;}
	.st17{fill:#FFFFFF;stroke:#45413C;stroke-linecap:round;stroke-linejoin:round;stroke-miterlimit:10;}
	.st18{fill:#DE926A;}
	.st19{fill:#FFCEBF;}
	.st20{fill:#656769;}
	.st21{fill:#525252;}
	.st22{fill:#656769;stroke:#45413C;stroke-linecap:round;stroke-linejoin:round;stroke-miterlimit:10;}
	.st23{fill:#45413C;}
	.st24{fill:#009FD9;stroke:#45413C;stroke-linecap:round;stroke-linejoin:round;stroke-miterlimit:10;}
	.st25{fill:#A86C4D;stroke:#45413C;stroke-linecap:round;stroke-linejoin:round;stroke-miterlimit:10;}
	.st26{fill:#614B44;stroke:#45413C;stroke-linecap:round;stroke-linejoin:round;stroke-miterlimit:10;}
	.st27{fill:#FF6242;stroke:#45413C;stroke-linecap:round;stroke-linejoin:round;stroke-miterlimit:10;}
	.st28{fill:#9CEB60;stroke:#45413C;stroke-linecap:round;stroke-linejoin:round;stroke-miterlimit:10;}
	.st29{fill:#9F5AE5;}
	.st30{fill:#BF8DF2;}
	.st31{fill:#FFDCD1;}
	.st32{fill:#FFF48C;}
	.st33{fill:#E5FEFF;}
	.st34{fill:#00DFEB;}
	.st35{fill:#A6FBFF;}
	.st36{fill:#FF87AF;}
	.st37{fill:#FF6196;}
	.st38{fill:#EBCB00;stroke:#45413C;stroke-linecap:round;stroke-linejoin:round;stroke-miterlimit:10;}
	.st39{fill:#00B8F0;}
	.st40{fill:#009FD9;}
	.st41{fill:#4ACFFF;}
	.st42{fill:#FFB59E;stroke:#45413C;stroke-linecap:round;stroke-linejoin:round;stroke-miterlimit:10;}
	.st43{fill:#FFB0CA;}
	.st44{fill:#FF87AF;stroke:#45413C;stroke-linecap:round;stroke-linejoin:round;stroke-miterlimit:10;}
	.st45{fill:#00B8F0;stroke:#45413C;stroke-linecap:round;stroke-linejoin:round;stroke-miterlimit:10;}
	.st46{fill:#FF866E;stroke:#45413C;stroke-linecap:round;stroke-linejoin:round;stroke-miterlimit:10;}
	.st47{fill:#DAEDF7;stroke:#45413C;stroke-linecap:round;stroke-linejoin:round;stroke-miterlimit:10;}
	.st48{fill:#DABFF5;}
	.st49{fill:#C0DCEB;}
	.st50{fill:#ADC4D9;}
	.st51{fill:#E04122;stroke:#45413C;stroke-linecap:round;stroke-linejoin:round;stroke-miterlimit:10;}
	.st52{fill:#BF8256;}
	.st53{fill:#DEA47A;}
	.st54{fill:#87898C;}
	.st55{fill:#BDBEC0;stroke:#45413C;stroke-linecap:round;stroke-linejoin:round;stroke-miterlimit:10;}
	.st56{fill:#8CA4B8;}
	.st57{fill:#FFC44D;}
	.st58{fill:#FFDB94;}
	.st59{fill:#FFC44D;stroke:#45413C;stroke-linecap:round;stroke-linejoin:round;stroke-miterlimit:10;}
	.st60{fill:#E04122;}
	.st61{fill:#724F3D;stroke:#45413C;stroke-linecap:round;stroke-linejoin:round;stroke-miterlimit:10;}
	.st62{fill:#915E3A;}
	.st63{fill:#FF8A14;}
	.st64{fill:none;stroke:#45413C;stroke-linecap:round;stroke-miterlimit:10;}
	.st65{fill:#00F5BC;}
	.st66{fill:#00DBA8;}
	.st67{fill:#627B8C;}
</style>
<g>
	<g>
		<path id="XMLID_9268_" class="st13" d="M12.2,1.4c-0.8,0-1.6,0.1-2.4,0.3C8,2.2,5.6,2.9,3.4,2.4C3.2,4.5,4.3,5.6,4.3,5.6
			c-1.1,1.6-1.7,3.5-1.7,5.5v5.1H22v-5.1C22,5.8,17.6,1.4,12.2,1.4z"/>
		<g id="XMLID_9266_">
			<path id="XMLID_9267_" class="st18" d="M12.3,1.4c-0.8,0-1.6,0.1-2.4,0.3C8,2.2,5.6,2.9,3.4,2.4C3.3,4,3.8,5,4.1,5.4
				c2,0.2,4.1-0.4,5.7-0.8c0.8-0.2,1.6-0.3,2.4-0.3c5.4,0,9.7,4.4,9.7,9.7v-2.9C22,5.8,17.6,1.4,12.3,1.4z"/>
		</g>
		<path id="XMLID_9265_" class="st2" d="M12.2,1.4c-0.8,0-1.6,0.1-2.4,0.3C8,2.2,5.6,2.9,3.4,2.4C3.2,4.5,4.3,5.6,4.3,5.6
			c-1.1,1.6-1.7,3.5-1.7,5.5v5.1H22v-5.1C22,5.8,17.6,1.4,12.2,1.4z"/>
		<path id="XMLID_9264_" class="st39" d="M24,47.5H0.5V37.2c0-6.5,5.3-11.7,11.7-11.7h0c6.5,0,11.7,5.3,11.7,11.7V47.5z"/>
		<path class="st40" d="M12.3,25.5c-6.5,0-11.7,5.3-11.7,11.7v3.6c0-6.5,5.3-11.8,11.7-11.8S24,34.3,24,40.8v-3.6
			C24,30.7,18.7,25.5,12.3,25.5z"/>
		<path id="XMLID_9263_" class="st2" d="M24,47.5H0.5V37.2c0-6.5,5.3-11.7,11.7-11.7h0c6.5,0,11.7,5.3,11.7,11.7V47.5z"/>
		<path id="XMLID_9262_" class="st19" d="M12.3,29.3L12.3,29.3c-1.4,0-2.5-1.1-2.5-2.5V24c0-1.4,1.1-2.5,2.5-2.5h0
			c1.4,0,2.5,1.1,2.5,2.5v2.8C14.8,28.2,13.6,29.3,12.3,29.3z"/>
		<path id="XMLID_9261_" class="st11" d="M12.3,27.3L12.3,27.3c-1.4,0-2.5-1.1-2.5-2.5V24c0-1.4,1.1-2.5,2.5-2.5h0
			c1.4,0,2.5,1.1,2.5,2.5v0.8C14.8,26.2,13.6,27.3,12.3,27.3z"/>
		<path id="XMLID_9260_" class="st2" d="M12.3,29.3L12.3,29.3c-1.4,0-2.5-1.1-2.5-2.5V24c0-1.4,1.1-2.5,2.5-2.5h0
			c1.4,0,2.5,1.1,2.5,2.5v2.8C14.8,28.2,13.6,29.3,12.3,29.3z"/>
		<path class="st10" d="M23,15.4c-0.1-0.9-1-1.5-1.9-1.5c-0.9,0-1.6-0.7-1.6-1.6V9.8C19.5,9,19,8.2,18.2,8c-1.5,0.7-3.6,1.1-5.9,1.1
			S7.9,8.7,6.3,8C5.5,8.2,5,9,5,9.8v2.5c0,0.9-0.7,1.6-1.6,1.6c-0.9,0-1.7,0.6-1.9,1.5c-0.2,1.1,0.7,2.1,1.8,2.1c0,0,0.1,0,0.1,0
			c0.6,4.3,4.4,7.6,8.9,7.6s8.2-3.3,8.9-7.6c0,0,0.1,0,0.1,0C22.3,17.4,23.2,16.5,23,15.4z"/>
		<circle id="XMLID_9259_" class="st7" cx="7.6" cy="15.3" r="0.8"/>
		<circle id="XMLID_9258_" class="st7" cx="16.9" cy="15.3" r="0.8"/>
		<g id="XMLID_9254_">
			<g id="XMLID_9256_">
				<path id="XMLID_9257_" class="st3" d="M9.4,19.9c-0.1,0-0.2,0.1-0.3,0.2C9,20.2,9,20.3,9,20.4c0.2,1.6,1.6,2.7,3.2,2.7
					c1.6,0,3-1.2,3.2-2.7c0-0.1,0-0.3-0.1-0.4c-0.1-0.1-0.2-0.2-0.3-0.2H9.4z"/>
			</g>
			<path id="XMLID_9255_" class="st16" d="M12.3,23.2c0.9,0,1.7-0.4,2.3-0.9c-0.6-0.6-1.4-0.9-2.3-0.9c-0.9,0-1.7,0.4-2.3,0.9
				C10.5,22.8,11.4,23.2,12.3,23.2z"/>
		</g>
		<g id="XMLID_9252_">
			<path id="XMLID_9253_" class="st2" d="M9.4,19.9c-0.1,0-0.2,0.1-0.3,0.2C9,20.2,9,20.3,9,20.4c0.2,1.6,1.6,2.7,3.2,2.7
				c1.6,0,3-1.2,3.2-2.7c0-0.1,0-0.3-0.1-0.4c-0.1-0.1-0.2-0.2-0.3-0.2H9.4z"/>
		</g>
		<line id="XMLID_9251_" class="st2" x1="5.4" y1="47.5" x2="5.4" y2="36.7"/>
		<ellipse id="XMLID_9250_" class="st11" cx="6.4" cy="18.5" rx="1" ry="0.6"/>
		<ellipse id="XMLID_9249_" class="st11" cx="18.1" cy="18.5" rx="1" ry="0.6"/>
	</g>
	<g>
		<path id="XMLID_9190_" class="st13" d="M35.8,0.9c5.9,0,10.8,4.8,10.8,10.8v14c0,0.5-0.3,0.9-0.8,1.1l0,0c-6.4,2.6-13.6,2.6-20,0
			l0,0c-0.5-0.2-0.8-0.6-0.8-1.1v-14C25,5.7,29.8,0.9,35.8,0.9z"/>
		<path id="XMLID_9189_" class="st18" d="M35.8,0.9C29.8,0.9,25,5.7,25,11.6v3.2C25,8.8,29.8,4,35.7,4h0c5.9,0,10.8,4.8,10.8,10.8
			v-3.2C46.5,5.7,41.7,0.9,35.8,0.9z"/>
		<path id="XMLID_9188_" class="st2" d="M35.8,0.9c5.9,0,10.8,4.8,10.8,10.8v14c0,0.5-0.3,0.9-0.8,1.1l0,0c-6.4,2.6-13.6,2.6-20,0
			l0,0c-0.5-0.2-0.8-0.6-0.8-1.1v-14C25,5.7,29.8,0.9,35.8,0.9z"/>
		<path id="XMLID_9187_" class="st36" d="M47.5,47.5H24V37.2c0-6.5,5.3-11.7,11.7-11.7h0c6.5,0,11.7,5.3,11.7,11.7V47.5z"/>
		<path class="st37" d="M35.7,25.5c-6.5,0-11.7,5.3-11.7,11.7v3.6c0-6.5,5.3-11.8,11.7-11.8s11.7,5.3,11.7,11.8v-3.6
			C47.5,30.7,42.2,25.5,35.7,25.5z"/>
		<path id="XMLID_9186_" class="st2" d="M47.5,47.5H24V37.2c0-6.5,5.3-11.7,11.7-11.7h0c6.5,0,11.7,5.3,11.7,11.7V47.5z"/>
		<path id="XMLID_9185_" class="st10" d="M35.8,29.3L35.8,29.3c-1.4,0-2.5-1.1-2.5-2.5V24c0-1.4,1.1-2.5,2.5-2.5h0
			c1.4,0,2.5,1.1,2.5,2.5v2.8C38.3,28.2,37.1,29.3,35.8,29.3z"/>
		<g id="XMLID_9183_">
			<path id="XMLID_9184_" class="st10" d="M44.7,13.9c-2.5-0.7-4.6-2.5-5.6-5l-0.6-1.5c-2.4,3.2-5.9,5.4-9.8,6.1l-1.9,0.3
				c-1,0-1.8,0.8-1.8,1.8s0.8,1.8,1.8,1.8c0,0,0.1,0,0.1,0c0.6,4.3,4.4,7.6,8.9,7.6c4.5,0,8.2-3.3,8.9-7.6c0,0,0.1,0,0.1,0
				c1,0,1.8-0.8,1.8-1.8S45.7,13.9,44.7,13.9z"/>
		</g>
		<circle id="XMLID_9182_" class="st7" cx="31.1" cy="15.3" r="0.8"/>
		<circle id="XMLID_9181_" class="st7" cx="40.4" cy="15.3" r="0.8"/>
		<g id="XMLID_9177_">
			<g id="XMLID_9179_">
				<path id="XMLID_9180_" class="st3" d="M32.9,19.9c-0.1,0-0.2,0.1-0.3,0.2c-0.1,0.1-0.1,0.2-0.1,0.4c0.2,1.6,1.6,2.7,3.2,2.7
					c1.6,0,3-1.2,3.2-2.7c0-0.1,0-0.3-0.1-0.4c-0.1-0.1-0.2-0.2-0.3-0.2H32.9z"/>
			</g>
			<path id="XMLID_9178_" class="st16" d="M35.8,23.2c0.9,0,1.7-0.4,2.3-0.9c-0.6-0.6-1.4-0.9-2.3-0.9c-0.9,0-1.7,0.4-2.3,0.9
				C34,22.8,34.9,23.2,35.8,23.2z"/>
		</g>
		<g id="XMLID_9175_">
			<path id="XMLID_9176_" class="st2" d="M32.9,19.9c-0.1,0-0.2,0.1-0.3,0.2c-0.1,0.1-0.1,0.2-0.1,0.4c0.2,1.6,1.6,2.7,3.2,2.7
				c1.6,0,3-1.2,3.2-2.7c0-0.1,0-0.3-0.1-0.4c-0.1-0.1-0.2-0.2-0.3-0.2H32.9z"/>
		</g>
		<line id="XMLID_9174_" class="st2" x1="42.6" y1="47.5" x2="42.6" y2="36.7"/>
		<ellipse id="XMLID_9173_" class="st11" cx="29.9" cy="18.5" rx="1" ry="0.6"/>
		<ellipse id="XMLID_9172_" class="st11" cx="41.6" cy="18.5" rx="1" ry="0.6"/>
	</g>
	<g>
		<path id="XMLID_9079_" class="st25" d="M14.1,41.2c0,0,0.9-0.8,1.6-2c0.8-1.4,2.7-1.7,3.5-0.5c0.7,1.1,0.3,2.4-1.5,3
			C15.7,42.5,14.1,41.2,14.1,41.2z"/>
		<path id="XMLID_9078_" class="st25" d="M33.9,41.2c0,0-0.9-0.8-1.6-2c-0.8-1.4-2.7-1.7-3.5-0.5c-0.7,1.1-0.3,2.4,1.5,3
			C32.3,42.5,33.9,41.2,33.9,41.2z"/>
		<path id="XMLID_9077_" class="st30" d="M32.8,47.5c-1.3-3.6-4.8-6.1-8.8-6.1c-4,0-7.5,2.5-8.8,6.1H32.8z"/>
		<path id="XMLID_9076_" class="st29" d="M24,44.2c2.9,0,5.5,1.3,7.2,3.3h1.6c-1.3-3.6-4.8-6.1-8.8-6.1c-4,0-7.5,2.5-8.8,6.1h1.6
			C18.5,45.5,21.1,44.2,24,44.2z"/>
		<path id="XMLID_9075_" class="st2" d="M32.8,47.5c-1.3-3.6-4.8-6.1-8.8-6.1c-4,0-7.5,2.5-8.8,6.1H32.8z"/>
		<path id="XMLID_9074_" class="st19" d="M24,44.6L24,44.6c-1,0-1.9-0.8-1.9-1.9v-2.7c0-1,0.8-1.9,1.9-1.9h0c1,0,1.9,0.8,1.9,1.9
			v2.7C25.9,43.8,25,44.6,24,44.6z"/>
		<path id="XMLID_9073_" class="st11" d="M24,42.9L24,42.9c-1,0-1.9-0.8-1.9-1.9v-0.9c0-1,0.8-1.9,1.9-1.9h0c1,0,1.9,0.8,1.9,1.9V41
			C25.9,42,25,42.9,24,42.9z"/>
		<path id="XMLID_9072_" class="st2" d="M24,44.6L24,44.6c-1,0-1.9-0.8-1.9-1.9v-2.7c0-1,0.8-1.9,1.9-1.9h0c1,0,1.9,0.8,1.9,1.9v2.7
			C25.9,43.8,25,44.6,24,44.6z"/>
		<path id="XMLID_9071_" class="st13" d="M24,23.8L24,23.8c-4,0-7.3,3.2-7.3,7.3v3.8h14.5V31C31.3,27,28,23.8,24,23.8z"/>
		<path id="XMLID_9070_" class="st18" d="M24,23.8c-4,0-7.3,3.2-7.3,7.3v2.3c0-4,3.2-7.3,7.3-7.3s7.3,3.2,7.3,7.3V31
			C31.3,27,28,23.8,24,23.8z"/>
		<path id="XMLID_9069_" class="st2" d="M24,23.8c-4,0-7.3,3.2-7.3,7.3v3.8h14.5V31C31.3,27,28,23.8,24,23.8z"/>
		<path class="st10" d="M32,34.3c0-0.6-0.5-1-1-1.1c-5.1,0-7-3.8-7-3.8c0,0.1-1.9,3.8-7,3.8c-0.5,0.1-1,0.6-1,1.1
			c-0.1,0.8,0.6,1.5,1.3,1.5c0,0,0.1,0,0.1,0c0.5,3.2,3.3,5.7,6.6,5.7s6.1-2.5,6.6-5.7c0,0,0.1,0,0.1,0C31.5,35.7,32.1,35.1,32,34.3
			z"/>
		<circle id="XMLID_9068_" class="st7" cx="21" cy="34.7" r="0.5"/>
		<circle id="XMLID_9067_" class="st7" cx="27" cy="34.7" r="0.5"/>
		<ellipse id="XMLID_9066_" class="st11" cx="19.7" cy="36.8" rx="0.6" ry="0.4"/>
		<ellipse id="XMLID_9065_" class="st11" cx="28.3" cy="36.8" rx="0.6" ry="0.4"/>
		<path id="XMLID_9064_" class="st2" d="M22.3,38.8c0,0,0.5,0.5,1.7,0.5s1.7-0.5,1.7-0.5"/>
	</g>
</g>
</svg>
